<mxfile host="65bd71144e">
    <diagram id="C7NYWP1bneHaLhIfnpd5" name="Page-1">
        <mxGraphModel dx="864" dy="506" grid="1" gridSize="10" guides="1" tooltips="1" connect="1" arrows="1" fold="1" page="1" pageScale="1" pageWidth="827" pageHeight="1169" math="0" shadow="0">
            <root>
                <mxCell id="0"/>
                <mxCell id="1" parent="0"/>
                <mxCell id="2" value="&lt;font style=&quot;font-size: 22px&quot;&gt;&lt;font color=&quot;#ffcec7&quot;&gt;STEP 1: &lt;/font&gt;&lt;font color=&quot;#8a3f3c&quot;&gt;&lt;b&gt;ER Diagram&lt;/b&gt;&lt;/font&gt;&lt;/font&gt;" style="shape=hexagon;perimeter=hexagonPerimeter2;whiteSpace=wrap;html=1;fixedSize=1;fontColor=#ffffff;fillColor=#E86A65;strokeColor=#8A3F3C;" parent="1" vertex="1">
                    <mxGeometry y="10" width="810" height="60" as="geometry"/>
                </mxCell>
                <mxCell id="3" value="&lt;font color=&quot;#1a1a1a&quot; style=&quot;font-size: 20px&quot;&gt;products&lt;/font&gt;" style="rounded=0;whiteSpace=wrap;html=1;fillColor=#FFABA8;gradientColor=#8A3F3C;" parent="1" vertex="1">
                    <mxGeometry x="611" y="190" width="120" height="60" as="geometry"/>
                </mxCell>
                <mxCell id="4" value="&lt;font color=&quot;#1a1a1a&quot;&gt;orders&lt;/font&gt;" style="rhombus;whiteSpace=wrap;html=1;fillColor=#8DBAFA;gradientColor=#35465E;" parent="1" vertex="1">
                    <mxGeometry x="480" y="175" width="76" height="50" as="geometry"/>
                </mxCell>
                <mxCell id="6" value="&lt;font color=&quot;#1a1a1a&quot; style=&quot;font-size: 20px&quot;&gt;shipping&lt;/font&gt;" style="rounded=0;whiteSpace=wrap;html=1;fillColor=#FFABA8;gradientColor=#8A3F3C;" parent="1" vertex="1">
                    <mxGeometry x="120" y="320" width="120" height="60" as="geometry"/>
                </mxCell>
                <mxCell id="7" value="&lt;font color=&quot;#1a1a1a&quot; style=&quot;font-size: 20px&quot;&gt;payment&lt;/font&gt;" style="rounded=0;whiteSpace=wrap;html=1;fillColor=#FFABA8;gradientColor=#8A3F3C;" parent="1" vertex="1">
                    <mxGeometry x="286" y="520" width="120" height="60" as="geometry"/>
                </mxCell>
                <mxCell id="8" value="&lt;font color=&quot;#1a1a1a&quot; style=&quot;font-size: 20px&quot;&gt;users&lt;/font&gt;" style="rounded=0;whiteSpace=wrap;html=1;fillColor=#FFABA8;gradientColor=#8A3F3C;" parent="1" vertex="1">
                    <mxGeometry x="311" y="150" width="120" height="60" as="geometry"/>
                </mxCell>
                <mxCell id="9" value="&lt;font color=&quot;#1a1a1a&quot;&gt;&lt;span style=&quot;font-size: 20px&quot;&gt;order&lt;/span&gt;&lt;/font&gt;" style="rounded=0;whiteSpace=wrap;html=1;fillColor=#FFABA8;gradientColor=#8A3F3C;" parent="1" vertex="1">
                    <mxGeometry x="576" y="395" width="120" height="60" as="geometry"/>
                </mxCell>
                <mxCell id="10" value="&lt;font color=&quot;#1a1a1a&quot;&gt;userName&lt;/font&gt;" style="ellipse;whiteSpace=wrap;html=1;fillColor=#66FFB3;gradientDirection=south;gradientColor=#3F693F;" parent="1" vertex="1">
                    <mxGeometry x="211" y="130" width="70" height="40" as="geometry"/>
                </mxCell>
                <mxCell id="14" value="&lt;font color=&quot;#1a1a1a&quot;&gt;FName&lt;/font&gt;" style="ellipse;whiteSpace=wrap;html=1;fillColor=#66FFB3;gradientDirection=south;gradientColor=#3F693F;" parent="1" vertex="1">
                    <mxGeometry x="256" y="90" width="70" height="40" as="geometry"/>
                </mxCell>
                <mxCell id="15" value="&lt;font color=&quot;#1a1a1a&quot;&gt;LName&lt;/font&gt;" style="ellipse;whiteSpace=wrap;html=1;fillColor=#66FFB3;gradientDirection=south;gradientColor=#3F693F;" parent="1" vertex="1">
                    <mxGeometry x="336" y="90" width="70" height="40" as="geometry"/>
                </mxCell>
                <mxCell id="16" value="&lt;font color=&quot;#1a1a1a&quot;&gt;Adress&lt;/font&gt;" style="ellipse;whiteSpace=wrap;html=1;fillColor=#66FFB3;gradientDirection=south;gradientColor=#3F693F;" parent="1" vertex="1">
                    <mxGeometry x="414" y="90" width="70" height="40" as="geometry"/>
                </mxCell>
                <mxCell id="17" value="&lt;font color=&quot;#1a1a1a&quot;&gt;userID&lt;/font&gt;" style="ellipse;whiteSpace=wrap;html=1;fillColor=#66FFB3;gradientDirection=south;gradientColor=#3F693F;" parent="1" vertex="1">
                    <mxGeometry x="200" y="180" width="70" height="40" as="geometry"/>
                </mxCell>
                <mxCell id="18" value="&lt;font color=&quot;#1a1a1a&quot;&gt;email&lt;/font&gt;" style="ellipse;whiteSpace=wrap;html=1;fillColor=#66FFB3;gradientDirection=south;gradientColor=#3F693F;" parent="1" vertex="1">
                    <mxGeometry x="486" y="110" width="70" height="40" as="geometry"/>
                </mxCell>
                <mxCell id="37" value="" style="endArrow=none;html=1;entryX=1;entryY=0.5;entryDx=0;entryDy=0;" parent="1" target="17" edge="1">
                    <mxGeometry width="50" height="50" relative="1" as="geometry">
                        <mxPoint x="311" y="210" as="sourcePoint"/>
                        <mxPoint x="431" y="130" as="targetPoint"/>
                    </mxGeometry>
                </mxCell>
                <mxCell id="38" value="" style="endArrow=none;html=1;entryX=1;entryY=0.5;entryDx=0;entryDy=0;" parent="1" target="10" edge="1">
                    <mxGeometry width="50" height="50" relative="1" as="geometry">
                        <mxPoint x="311" y="170" as="sourcePoint"/>
                        <mxPoint x="431" y="130" as="targetPoint"/>
                    </mxGeometry>
                </mxCell>
                <mxCell id="39" value="" style="endArrow=none;html=1;exitX=1;exitY=1;exitDx=0;exitDy=0;entryX=0.108;entryY=-0.033;entryDx=0;entryDy=0;entryPerimeter=0;" parent="1" source="14" target="8" edge="1">
                    <mxGeometry width="50" height="50" relative="1" as="geometry">
                        <mxPoint x="381" y="180" as="sourcePoint"/>
                        <mxPoint x="431" y="130" as="targetPoint"/>
                    </mxGeometry>
                </mxCell>
                <mxCell id="40" value="" style="endArrow=none;html=1;exitX=0.5;exitY=1;exitDx=0;exitDy=0;entryX=0.5;entryY=0;entryDx=0;entryDy=0;" parent="1" source="15" target="8" edge="1">
                    <mxGeometry width="50" height="50" relative="1" as="geometry">
                        <mxPoint x="381" y="180" as="sourcePoint"/>
                        <mxPoint x="326" y="150" as="targetPoint"/>
                    </mxGeometry>
                </mxCell>
                <mxCell id="41" value="" style="endArrow=none;html=1;" parent="1" target="16" edge="1">
                    <mxGeometry width="50" height="50" relative="1" as="geometry">
                        <mxPoint x="405" y="149" as="sourcePoint"/>
                        <mxPoint x="431" y="130" as="targetPoint"/>
                    </mxGeometry>
                </mxCell>
                <mxCell id="42" value="" style="endArrow=none;html=1;exitX=1;exitY=0;exitDx=0;exitDy=0;entryX=0;entryY=1;entryDx=0;entryDy=0;" parent="1" source="8" target="18" edge="1">
                    <mxGeometry width="50" height="50" relative="1" as="geometry">
                        <mxPoint x="180" y="270" as="sourcePoint"/>
                        <mxPoint x="267" y="210" as="targetPoint"/>
                    </mxGeometry>
                </mxCell>
                <mxCell id="43" value="&lt;font color=&quot;#1a1a1a&quot;&gt;productID&lt;/font&gt;" style="ellipse;whiteSpace=wrap;html=1;fillColor=#66FFB3;gradientDirection=south;gradientColor=#3F693F;" parent="1" vertex="1">
                    <mxGeometry x="601" y="130" width="70" height="40" as="geometry"/>
                </mxCell>
                <mxCell id="44" value="&lt;font color=&quot;#1a1a1a&quot;&gt;Name&lt;/font&gt;" style="ellipse;whiteSpace=wrap;html=1;fillColor=#66FFB3;gradientDirection=south;gradientColor=#3F693F;" parent="1" vertex="1">
                    <mxGeometry x="671" y="130" width="70" height="40" as="geometry"/>
                </mxCell>
                <mxCell id="45" value="&lt;font color=&quot;#1a1a1a&quot;&gt;Company&lt;/font&gt;" style="ellipse;whiteSpace=wrap;html=1;fillColor=#66FFB3;gradientDirection=south;gradientColor=#3F693F;" parent="1" vertex="1">
                    <mxGeometry x="750" y="134" width="70" height="40" as="geometry"/>
                </mxCell>
                <mxCell id="46" value="&lt;font color=&quot;#1a1a1a&quot;&gt;description&lt;/font&gt;" style="ellipse;whiteSpace=wrap;html=1;fillColor=#66FFB3;gradientDirection=south;gradientColor=#3F693F;" parent="1" vertex="1">
                    <mxGeometry x="757" y="200" width="70" height="40" as="geometry"/>
                </mxCell>
                <mxCell id="47" value="&lt;font color=&quot;#1a1a1a&quot;&gt;price&lt;/font&gt;" style="ellipse;whiteSpace=wrap;html=1;fillColor=#66FFB3;gradientDirection=south;gradientColor=#3F693F;" parent="1" vertex="1">
                    <mxGeometry x="750" y="250" width="70" height="40" as="geometry"/>
                </mxCell>
                <mxCell id="48" value="" style="endArrow=none;html=1;entryX=0.5;entryY=1;entryDx=0;entryDy=0;exitX=0.25;exitY=0;exitDx=0;exitDy=0;" parent="1" source="3" target="43" edge="1">
                    <mxGeometry width="50" height="50" relative="1" as="geometry">
                        <mxPoint x="492" y="362.5" as="sourcePoint"/>
                        <mxPoint x="542" y="312.5" as="targetPoint"/>
                    </mxGeometry>
                </mxCell>
                <mxCell id="49" value="" style="endArrow=none;html=1;entryX=0.5;entryY=1;entryDx=0;entryDy=0;exitX=0.75;exitY=0;exitDx=0;exitDy=0;" parent="1" source="3" target="44" edge="1">
                    <mxGeometry width="50" height="50" relative="1" as="geometry">
                        <mxPoint x="622" y="291.5" as="sourcePoint"/>
                        <mxPoint x="542" y="312.5" as="targetPoint"/>
                    </mxGeometry>
                </mxCell>
                <mxCell id="50" value="" style="endArrow=none;html=1;exitX=1;exitY=0;exitDx=0;exitDy=0;entryX=0;entryY=1;entryDx=0;entryDy=0;" parent="1" source="3" target="45" edge="1">
                    <mxGeometry width="50" height="50" relative="1" as="geometry">
                        <mxPoint x="652" y="292.5" as="sourcePoint"/>
                        <mxPoint x="750.7199999999998" y="172.20000000000005" as="targetPoint"/>
                    </mxGeometry>
                </mxCell>
                <mxCell id="51" value="" style="endArrow=none;html=1;exitX=1;exitY=0.5;exitDx=0;exitDy=0;" parent="1" source="3" target="46" edge="1">
                    <mxGeometry width="50" height="50" relative="1" as="geometry">
                        <mxPoint x="432" y="362.5" as="sourcePoint"/>
                        <mxPoint x="757" y="219.9999999999999" as="targetPoint"/>
                    </mxGeometry>
                </mxCell>
                <mxCell id="52" value="" style="endArrow=none;html=1;entryX=1;entryY=1;entryDx=0;entryDy=0;" parent="1" source="47" target="3" edge="1">
                    <mxGeometry width="50" height="50" relative="1" as="geometry">
                        <mxPoint x="751" y="270" as="sourcePoint"/>
                        <mxPoint x="482" y="312.5" as="targetPoint"/>
                    </mxGeometry>
                </mxCell>
                <mxCell id="56" value="" style="fontSize=12;html=1;endArrow=ERzeroToMany;endFill=1;exitX=1;exitY=0.5;exitDx=0;exitDy=0;" parent="1" source="4" edge="1">
                    <mxGeometry width="100" height="100" relative="1" as="geometry">
                        <mxPoint x="220" y="280" as="sourcePoint"/>
                        <mxPoint x="610" y="200" as="targetPoint"/>
                    </mxGeometry>
                </mxCell>
                <mxCell id="61" value="&lt;font color=&quot;#1a1a1a&quot;&gt;orderID&lt;/font&gt;" style="ellipse;whiteSpace=wrap;html=1;fillColor=#66FFB3;gradientDirection=south;gradientColor=#3F693F;" parent="1" vertex="1">
                    <mxGeometry x="731" y="480" width="70" height="40" as="geometry"/>
                </mxCell>
                <mxCell id="62" value="&lt;font color=&quot;#1a1a1a&quot;&gt;fk_productsID&lt;/font&gt;" style="ellipse;whiteSpace=wrap;html=1;fillColor=#66FFB3;gradientDirection=south;gradientColor=#3F693F;" parent="1" vertex="1">
                    <mxGeometry x="725.5" y="435" width="90" height="40" as="geometry"/>
                </mxCell>
                <mxCell id="63" value="&lt;font color=&quot;#1a1a1a&quot;&gt;fk_paymentID&lt;/font&gt;" style="ellipse;whiteSpace=wrap;html=1;fillColor=#66FFB3;gradientDirection=south;gradientColor=#3F693F;" parent="1" vertex="1">
                    <mxGeometry x="726" y="385" width="89" height="40" as="geometry"/>
                </mxCell>
                <mxCell id="64" value="" style="endArrow=none;html=1;rounded=0;entryX=1;entryY=1;entryDx=0;entryDy=0;exitX=0;exitY=0;exitDx=0;exitDy=0;" parent="1" source="61" target="9" edge="1">
                    <mxGeometry relative="1" as="geometry">
                        <mxPoint x="730" y="555" as="sourcePoint"/>
                        <mxPoint x="711" y="557.5" as="targetPoint"/>
                    </mxGeometry>
                </mxCell>
                <mxCell id="65" value="" style="endArrow=none;html=1;rounded=0;" parent="1" source="62" target="9" edge="1">
                    <mxGeometry relative="1" as="geometry">
                        <mxPoint x="551" y="557.5" as="sourcePoint"/>
                        <mxPoint x="711" y="557.5" as="targetPoint"/>
                    </mxGeometry>
                </mxCell>
                <mxCell id="67" value="&lt;font color=&quot;#1a1a1a&quot;&gt;contain&lt;/font&gt;" style="rhombus;whiteSpace=wrap;html=1;fillColor=#8DBAFA;gradientColor=#35465E;" parent="1" vertex="1">
                    <mxGeometry x="626" y="300" width="80" height="50" as="geometry"/>
                </mxCell>
                <mxCell id="69" value="" style="fontSize=12;html=1;endArrow=ERzeroToMany;endFill=1;exitX=0.5;exitY=0;exitDx=0;exitDy=0;" parent="1" source="67" edge="1">
                    <mxGeometry width="100" height="100" relative="1" as="geometry">
                        <mxPoint x="664.9999999999998" y="274" as="sourcePoint"/>
                        <mxPoint x="666" y="250" as="targetPoint"/>
                    </mxGeometry>
                </mxCell>
                <mxCell id="73" value="&lt;font color=&quot;#1a1a1a&quot;&gt;make&lt;/font&gt;" style="rhombus;whiteSpace=wrap;html=1;fillColor=#8DBAFA;gradientColor=#35465E;" parent="1" vertex="1">
                    <mxGeometry x="360.5" y="360" width="71" height="65" as="geometry"/>
                </mxCell>
                <mxCell id="74" value="" style="fontSize=12;html=1;endArrow=ERmandOne;startArrow=ERmandOne;entryX=0.5;entryY=1;entryDx=0;entryDy=0;exitX=0.883;exitY=0.021;exitDx=0;exitDy=0;exitPerimeter=0;" parent="1" source="7" target="73" edge="1">
                    <mxGeometry width="100" height="100" relative="1" as="geometry">
                        <mxPoint x="230" y="435" as="sourcePoint"/>
                        <mxPoint x="312" y="521.25" as="targetPoint"/>
                    </mxGeometry>
                </mxCell>
                <mxCell id="75" value="&lt;font color=&quot;#1a1a1a&quot;&gt;fk_orderID&lt;/font&gt;" style="ellipse;whiteSpace=wrap;html=1;fillColor=#66FFB3;gradientDirection=south;gradientColor=#3F693F;" parent="1" vertex="1">
                    <mxGeometry x="216" y="600" width="70" height="40" as="geometry"/>
                </mxCell>
                <mxCell id="76" value="&lt;font color=&quot;#1a1a1a&quot;&gt;date&lt;/font&gt;" style="ellipse;whiteSpace=wrap;html=1;fillColor=#66FFB3;gradientDirection=south;gradientColor=#3F693F;" parent="1" vertex="1">
                    <mxGeometry x="370" y="600" width="70" height="40" as="geometry"/>
                </mxCell>
                <mxCell id="77" value="&lt;font color=&quot;#1a1a1a&quot;&gt;fk_userID&lt;/font&gt;" style="ellipse;whiteSpace=wrap;html=1;fillColor=#66FFB3;gradientDirection=south;gradientColor=#3F693F;" parent="1" vertex="1">
                    <mxGeometry x="186" y="560" width="70" height="40" as="geometry"/>
                </mxCell>
                <mxCell id="78" value="&lt;font color=&quot;#1a1a1a&quot;&gt;type&lt;/font&gt;" style="ellipse;whiteSpace=wrap;html=1;fillColor=#66FFB3;gradientDirection=south;gradientColor=#3F693F;" parent="1" vertex="1">
                    <mxGeometry x="190" y="510" width="70" height="40" as="geometry"/>
                </mxCell>
                <mxCell id="79" value="&lt;font color=&quot;#1a1a1a&quot;&gt;paymentID&lt;/font&gt;" style="ellipse;whiteSpace=wrap;html=1;fillColor=#66FFB3;gradientDirection=south;gradientColor=#3F693F;" parent="1" vertex="1">
                    <mxGeometry x="296" y="600" width="70" height="40" as="geometry"/>
                </mxCell>
                <mxCell id="82" value="&lt;font color=&quot;#1a1a1a&quot;&gt;shippingID&lt;/font&gt;" style="ellipse;whiteSpace=wrap;html=1;fillColor=#66FFB3;gradientDirection=south;gradientColor=#3F693F;" parent="1" vertex="1">
                    <mxGeometry x="30" y="330" width="70" height="40" as="geometry"/>
                </mxCell>
                <mxCell id="85" value="&lt;font color=&quot;#1a1a1a&quot;&gt;fk_paymentID&lt;/font&gt;" style="ellipse;whiteSpace=wrap;html=1;fillColor=#66FFB3;gradientDirection=south;gradientColor=#3F693F;" parent="1" vertex="1">
                    <mxGeometry x="20" y="395" width="90" height="40" as="geometry"/>
                </mxCell>
                <mxCell id="86" value="&lt;font color=&quot;#1a1a1a&quot;&gt;shipp_Company&lt;/font&gt;" style="ellipse;whiteSpace=wrap;html=1;fillColor=#66FFB3;gradientDirection=south;gradientColor=#3F693F;" parent="1" vertex="1">
                    <mxGeometry x="130" y="410" width="100" height="40" as="geometry"/>
                </mxCell>
                <mxCell id="87" value="&lt;font color=&quot;#1a1a1a&quot;&gt;Summe&lt;/font&gt;" style="ellipse;whiteSpace=wrap;html=1;fillColor=#66FFB3;gradientDirection=south;gradientColor=#3F693F;" parent="1" vertex="1">
                    <mxGeometry x="661" y="495" width="70" height="40" as="geometry"/>
                </mxCell>
                <mxCell id="89" value="" style="endArrow=none;html=1;rounded=0;entryX=0;entryY=0.5;entryDx=0;entryDy=0;exitX=1.022;exitY=0.378;exitDx=0;exitDy=0;exitPerimeter=0;" parent="1" source="9" target="63" edge="1">
                    <mxGeometry relative="1" as="geometry">
                        <mxPoint x="471" y="557.5" as="sourcePoint"/>
                        <mxPoint x="732.4499999999998" y="470.28" as="targetPoint"/>
                    </mxGeometry>
                </mxCell>
                <mxCell id="92" value="" style="fontSize=12;html=1;endArrow=ERmandOne;startArrow=ERmandOne;exitX=0.5;exitY=0;exitDx=0;exitDy=0;entryX=0.75;entryY=1;entryDx=0;entryDy=0;" parent="1" source="73" target="8" edge="1">
                    <mxGeometry width="100" height="100" relative="1" as="geometry">
                        <mxPoint x="323.3599999999999" y="536.8399999999999" as="sourcePoint"/>
                        <mxPoint x="336" y="505" as="targetPoint"/>
                    </mxGeometry>
                </mxCell>
                <mxCell id="94" value="&lt;font color=&quot;#1a1a1a&quot;&gt;processes&lt;/font&gt;" style="rhombus;whiteSpace=wrap;html=1;fillColor=#8DBAFA;gradientColor=#35465E;" parent="1" vertex="1">
                    <mxGeometry x="480" y="525" width="80" height="50" as="geometry"/>
                </mxCell>
                <mxCell id="95" value="" style="fontSize=12;html=1;endArrow=ERmandOne;startArrow=ERmandOne;entryX=0.5;entryY=1;entryDx=0;entryDy=0;exitX=1;exitY=0.5;exitDx=0;exitDy=0;" parent="1" source="94" target="9" edge="1">
                    <mxGeometry width="100" height="100" relative="1" as="geometry">
                        <mxPoint x="340" y="650" as="sourcePoint"/>
                        <mxPoint x="440" y="550" as="targetPoint"/>
                        <Array as="points">
                            <mxPoint x="636" y="550"/>
                        </Array>
                    </mxGeometry>
                </mxCell>
                <mxCell id="96" value="" style="fontSize=12;html=1;endArrow=ERmandOne;startArrow=ERmandOne;entryX=0;entryY=0.5;entryDx=0;entryDy=0;exitX=1;exitY=0.5;exitDx=0;exitDy=0;" parent="1" source="7" target="94" edge="1">
                    <mxGeometry width="100" height="100" relative="1" as="geometry">
                        <mxPoint x="516" y="565" as="sourcePoint"/>
                        <mxPoint x="453.5" y="615" as="targetPoint"/>
                    </mxGeometry>
                </mxCell>
                <mxCell id="98" value="&lt;font color=&quot;#1a1a1a&quot;&gt;ships&lt;/font&gt;" style="rhombus;whiteSpace=wrap;html=1;fillColor=#8DBAFA;gradientColor=#35465E;" parent="1" vertex="1">
                    <mxGeometry x="236" y="240" width="75" height="70" as="geometry"/>
                </mxCell>
                <mxCell id="105" value="" style="endArrow=none;html=1;rounded=0;exitX=1;exitY=0.5;exitDx=0;exitDy=0;entryX=0;entryY=0.75;entryDx=0;entryDy=0;" parent="1" source="77" target="7" edge="1">
                    <mxGeometry relative="1" as="geometry">
                        <mxPoint x="441" y="600" as="sourcePoint"/>
                        <mxPoint x="601" y="600" as="targetPoint"/>
                    </mxGeometry>
                </mxCell>
                <mxCell id="106" value="" style="endArrow=none;html=1;rounded=0;exitX=0.758;exitY=0.076;exitDx=0;exitDy=0;exitPerimeter=0;" parent="1" source="75" target="7" edge="1">
                    <mxGeometry relative="1" as="geometry">
                        <mxPoint x="441" y="600" as="sourcePoint"/>
                        <mxPoint x="601" y="600" as="targetPoint"/>
                    </mxGeometry>
                </mxCell>
                <mxCell id="109" value="" style="endArrow=none;html=1;rounded=0;entryX=0;entryY=0.5;entryDx=0;entryDy=0;exitX=1;exitY=0.5;exitDx=0;exitDy=0;" parent="1" source="78" target="7" edge="1">
                    <mxGeometry relative="1" as="geometry">
                        <mxPoint x="270" y="550" as="sourcePoint"/>
                        <mxPoint x="601" y="830" as="targetPoint"/>
                    </mxGeometry>
                </mxCell>
                <mxCell id="110" value="" style="endArrow=none;html=1;rounded=0;exitX=0.5;exitY=0;exitDx=0;exitDy=0;" parent="1" source="76" edge="1">
                    <mxGeometry relative="1" as="geometry">
                        <mxPoint x="391" y="600" as="sourcePoint"/>
                        <mxPoint x="390" y="580" as="targetPoint"/>
                    </mxGeometry>
                </mxCell>
                <mxCell id="111" value="" style="endArrow=none;html=1;rounded=0;exitX=0.75;exitY=1;exitDx=0;exitDy=0;entryX=0.354;entryY=0.014;entryDx=0;entryDy=0;entryPerimeter=0;" parent="1" source="9" target="87" edge="1">
                    <mxGeometry relative="1" as="geometry">
                        <mxPoint x="270" y="670" as="sourcePoint"/>
                        <mxPoint x="430" y="670" as="targetPoint"/>
                    </mxGeometry>
                </mxCell>
                <mxCell id="115" value="" style="endArrow=none;html=1;rounded=0;exitX=1;exitY=0.5;exitDx=0;exitDy=0;entryX=0;entryY=0.5;entryDx=0;entryDy=0;" parent="1" source="82" target="6" edge="1">
                    <mxGeometry relative="1" as="geometry">
                        <mxPoint x="145" y="41.25" as="sourcePoint"/>
                        <mxPoint x="165" y="81.25" as="targetPoint"/>
                    </mxGeometry>
                </mxCell>
                <mxCell id="116" value="" style="endArrow=none;html=1;rounded=0;exitX=1;exitY=0;exitDx=0;exitDy=0;entryX=0;entryY=1;entryDx=0;entryDy=0;" parent="1" source="85" target="6" edge="1">
                    <mxGeometry relative="1" as="geometry">
                        <mxPoint x="315" y="300" as="sourcePoint"/>
                        <mxPoint x="475" y="300" as="targetPoint"/>
                    </mxGeometry>
                </mxCell>
                <mxCell id="117" value="" style="endArrow=none;html=1;rounded=0;exitX=0.675;exitY=-0.013;exitDx=0;exitDy=0;exitPerimeter=0;entryX=0.75;entryY=1;entryDx=0;entryDy=0;" parent="1" source="86" target="6" edge="1">
                    <mxGeometry relative="1" as="geometry">
                        <mxPoint x="315" y="420" as="sourcePoint"/>
                        <mxPoint x="475" y="420" as="targetPoint"/>
                    </mxGeometry>
                </mxCell>
                <mxCell id="120" value="" style="fontSize=12;html=1;endArrow=ERzeroToMany;endFill=1;exitX=0;exitY=0.5;exitDx=0;exitDy=0;entryX=1;entryY=0.833;entryDx=0;entryDy=0;entryPerimeter=0;" parent="1" source="4" target="8" edge="1">
                    <mxGeometry width="100" height="100" relative="1" as="geometry">
                        <mxPoint x="340" y="330" as="sourcePoint"/>
                        <mxPoint x="420" y="200" as="targetPoint"/>
                    </mxGeometry>
                </mxCell>
                <mxCell id="121" value="" style="endArrow=none;html=1;rounded=0;exitX=0.5;exitY=0;exitDx=0;exitDy=0;entryX=0.299;entryY=1.033;entryDx=0;entryDy=0;entryPerimeter=0;" parent="1" source="79" target="7" edge="1">
                    <mxGeometry relative="1" as="geometry">
                        <mxPoint x="140" y="460" as="sourcePoint"/>
                        <mxPoint x="335" y="580" as="targetPoint"/>
                    </mxGeometry>
                </mxCell>
                <mxCell id="122" value="&lt;font color=&quot;#1a1a1a&quot;&gt;forwards order&lt;/font&gt;" style="rhombus;whiteSpace=wrap;html=1;fillColor=#8DBAFA;gradientColor=#35465E;" parent="1" vertex="1">
                    <mxGeometry x="256" y="420" width="110" height="55" as="geometry"/>
                </mxCell>
                <mxCell id="123" value="" style="fontSize=12;html=1;endArrow=ERone;endFill=1;exitX=0.5;exitY=1;exitDx=0;exitDy=0;entryX=0.25;entryY=0;entryDx=0;entryDy=0;" parent="1" source="122" target="7" edge="1">
                    <mxGeometry width="100" height="100" relative="1" as="geometry">
                        <mxPoint x="250" y="470" as="sourcePoint"/>
                        <mxPoint x="350" y="370" as="targetPoint"/>
                    </mxGeometry>
                </mxCell>
                <mxCell id="125" value="" style="fontSize=12;html=1;endArrow=ERone;endFill=1;exitX=0.5;exitY=0;exitDx=0;exitDy=0;entryX=0.25;entryY=1;entryDx=0;entryDy=0;" parent="1" source="98" target="8" edge="1">
                    <mxGeometry width="100" height="100" relative="1" as="geometry">
                        <mxPoint x="250" y="370" as="sourcePoint"/>
                        <mxPoint x="350" y="270" as="targetPoint"/>
                    </mxGeometry>
                </mxCell>
                <mxCell id="126" value="" style="fontSize=12;html=1;endArrow=ERone;endFill=1;exitX=0.5;exitY=1;exitDx=0;exitDy=0;entryX=1;entryY=0;entryDx=0;entryDy=0;" parent="1" source="98" target="6" edge="1">
                    <mxGeometry width="100" height="100" relative="1" as="geometry">
                        <mxPoint x="250" y="370" as="sourcePoint"/>
                        <mxPoint x="350" y="270" as="targetPoint"/>
                    </mxGeometry>
                </mxCell>
                <mxCell id="128" value="" style="fontSize=12;html=1;endArrow=ERone;endFill=1;exitX=0.5;exitY=0;exitDx=0;exitDy=0;entryX=1;entryY=1;entryDx=0;entryDy=0;" parent="1" source="122" target="6" edge="1">
                    <mxGeometry width="100" height="100" relative="1" as="geometry">
                        <mxPoint x="450" y="390" as="sourcePoint"/>
                        <mxPoint x="550" y="290" as="targetPoint"/>
                    </mxGeometry>
                </mxCell>
                <mxCell id="129" value="" style="fontSize=12;html=1;endArrow=ERone;endFill=1;exitX=0.5;exitY=1;exitDx=0;exitDy=0;" parent="1" source="67" edge="1">
                    <mxGeometry width="100" height="100" relative="1" as="geometry">
                        <mxPoint x="450" y="390" as="sourcePoint"/>
                        <mxPoint x="665" y="393" as="targetPoint"/>
                    </mxGeometry>
                </mxCell>
                <mxCell id="130" value="&lt;font color=&quot;#1a1a1a&quot;&gt;fk_userID&lt;/font&gt;" style="ellipse;whiteSpace=wrap;html=1;fillColor=#66FFB3;gradientDirection=south;gradientColor=#3F693F;" vertex="1" parent="1">
                    <mxGeometry x="30" y="270" width="70" height="40" as="geometry"/>
                </mxCell>
                <mxCell id="131" value="" style="endArrow=none;html=1;rounded=0;exitX=1;exitY=0.5;exitDx=0;exitDy=0;entryX=0;entryY=0;entryDx=0;entryDy=0;" edge="1" parent="1" source="130" target="6">
                    <mxGeometry relative="1" as="geometry">
                        <mxPoint x="390" y="480" as="sourcePoint"/>
                        <mxPoint x="550" y="480" as="targetPoint"/>
                    </mxGeometry>
                </mxCell>
            </root>
        </mxGraphModel>
    </diagram>
</mxfile>